<svg width="666.3px" height="120.8px" xmlns="http://www.w3.org/2000/svg" viewBox="-83.12750244140625 14.595079040527345 666.2550048828125 120.80984191894531" style="background: rgba(0, 0, 0, 0)" preserveAspectRatio="xMidYMid"><defs><linearGradient id="editing-gradient-gradient" x1="0" x2="1" y1="0.5" y2="0.5" gradientUnits="objectBoundingBox"><stop offset="0" stop-color="#ff00ff"></stop><stop offset="1" stop-color="#00ffff"></stop></linearGradient></defs><g><g transform="translate(12.8,104.5)"><path d="M 13.2 1.1 L -0.7 1.1 L 7.4 -41.1 L 21.5 -41.1 L 13.2 1.1 Z M 69 2.4 L 69 2.4 L 69 2.4 Q 61.2 2.4 61.2 -3.6 L 61.2 -3.6 L 61.2 -3.6 Q 61.2 -6.3 62.4 -11.3 L 62.4 -11.3 L 62.4 -11.3 Q 63.5 -16.4 63.9 -18.5 L 63.9 -18.5 L 63.9 -18.5 Q 64.8 -23.2 64.8 -24.6 L 64.8 -24.6 L 64.8 -24.6 Q 64.8 -27.9 62.3 -27.9 L 62.3 -27.9 L 62.3 -27.9 Q 60.7 -27.9 59.2 -25.7 L 59.2 -25.7 L 59.2 -25.7 Q 57.7 -23.5 56.9 -19.1 L 56.9 -19.1 L 53 1.1 L 40.5 2.4 L 44 -15 L 44 -15 Q 44.5 -17.9 45 -21.2 L 45 -21.2 L 45 -21.2 Q 45.6 -24.4 45.6 -25 L 45.6 -25 L 45.6 -25 Q 45.6 -27.9 43.4 -27.9 L 43.4 -27.9 L 43.4 -27.9 Q 41.9 -27.9 40.3 -25.7 L 40.3 -25.7 L 40.3 -25.7 Q 38.7 -23.5 37.8 -19.1 L 37.8 -19.1 L 33.9 1.1 L 21.3 2.4 L 28 -31.5 L 38.4 -32.8 L 37.4 -26.4 L 37.4 -26.4 Q 39 -29.8 42.1 -31.3 L 42.1 -31.3 L 42.1 -31.3 Q 45.2 -32.8 50 -32.8 L 50 -32.8 L 50 -32.8 Q 52.7 -32.8 54.5 -31.5 L 54.5 -31.5 L 54.5 -31.5 Q 56.3 -30.1 56.9 -28 L 56.9 -28 L 56.9 -28 Q 58 -30.2 60.8 -31.5 L 60.8 -31.5 L 60.8 -31.5 Q 63.5 -32.8 67 -32.8 L 67 -32.8 L 67 -32.8 Q 70.4 -32.8 72.1 -32.1 L 72.1 -32.1 L 72.1 -32.1 Q 73.8 -31.4 74.8 -30.1 L 74.8 -30.1 L 74.8 -30.1 Q 76.5 -27.9 76.5 -23.8 L 76.5 -23.8 L 76.5 -23.8 Q 76.5 -19.8 74.8 -11.4 L 74.8 -11.4 L 74.8 -11.4 Q 73.9 -7.3 73.9 -5.8 L 73.9 -5.8 L 73.9 -5.8 Q 73.9 -4.3 74.8 -3.4 L 74.8 -3.4 L 74.8 -3.4 Q 75.6 -2.5 76.9 -2.4 L 76.9 -2.4 L 76.9 -2.4 Q 76.3 -0.2 74.1 1.1 L 74.1 1.1 L 74.1 1.1 Q 71.9 2.4 69 2.4 Z M 84.6 -0.8 L 84.6 -0.8 L 84.6 -0.8 Q 83.1 -2.5 82.4 -5.1 L 82.4 -5.1 L 82.4 -5.1 Q 81.8 -7.7 81.8 -12 L 81.8 -12 L 81.8 -12 Q 81.8 -16.3 83.2 -20.2 L 83.2 -20.2 L 83.2 -20.2 Q 84.7 -24.1 87.4 -26.9 L 87.4 -26.9 L 87.4 -26.9 Q 92.9 -32.8 102 -32.8 L 102 -32.8 L 102 -32.8 Q 105.3 -32.8 107.6 -31.7 L 107.6 -31.7 L 118.6 -32.8 L 113.8 -7.9 L 113.8 -7.9 Q 113.7 -7.1 113.7 -5.7 L 113.7 -5.7 L 113.7 -5.7 Q 113.7 -4.3 114.5 -3.4 L 114.5 -3.4 L 114.5 -3.4 Q 115.4 -2.5 116.7 -2.4 L 116.7 -2.4 L 116.7 -2.4 Q 116 -0.2 113.7 1.1 L 113.7 1.1 L 113.7 1.1 Q 111.4 2.4 108.7 2.4 L 108.7 2.4 L 108.7 2.4 Q 106.1 2.4 104.3 1.4 L 104.3 1.4 L 104.3 1.4 Q 102.6 0.4 102.1 -1.3 L 102.1 -1.3 L 102.1 -1.3 Q 101 0.3 98.9 1.4 L 98.9 1.4 L 98.9 1.4 Q 96.7 2.4 93.8 2.4 L 93.8 2.4 L 93.8 2.4 Q 90.9 2.4 88.5 1.6 L 88.5 1.6 L 88.5 1.6 Q 86.1 0.8 84.6 -0.8 Z M 98.1 -26.8 L 98.1 -26.8 L 98.1 -26.8 Q 97.4 -25.7 96.8 -23.7 L 96.8 -23.7 L 96.8 -23.7 Q 96.1 -21.8 95.1 -16.5 L 95.1 -16.5 L 95.1 -16.5 Q 94 -11.3 94 -7.6 L 94 -7.6 L 94 -7.6 Q 94 -3.9 94.6 -2.8 L 94.6 -2.8 L 94.6 -2.8 Q 95.2 -1.7 96.2 -1.7 L 96.2 -1.7 L 96.2 -1.7 Q 98.2 -1.7 99.7 -3.7 L 99.7 -3.7 L 99.7 -3.7 Q 101.2 -5.6 101.8 -9.1 L 101.8 -9.1 L 105.2 -27.8 L 105.2 -27.8 Q 103.9 -29 102.3 -29 L 102.3 -29 L 102.3 -29 Q 100.7 -29 99.8 -28.5 L 99.8 -28.5 L 99.8 -28.5 Q 98.9 -28 98.1 -26.8 Z M 126.3 -25.7 L 126.3 -25.7 L 126.3 -25.7 Q 128.5 -28.7 131.8 -30.8 L 131.8 -30.8 L 131.8 -30.8 Q 135.1 -32.8 139.1 -32.8 L 139.1 -32.8 L 139.1 -32.8 Q 143.2 -32.8 145.1 -31.5 L 145.1 -31.5 L 157.6 -32.8 L 153.3 -8.2 L 153.3 -8.2 Q 151 4.3 146.3 9.2 L 146.3 9.2 L 146.3 9.2 Q 141.7 13.9 132.9 13.9 L 132.9 13.9 L 132.9 13.9 Q 126.2 13.9 122.4 11.8 L 122.4 11.8 L 122.4 11.8 Q 118.5 9.7 118.5 6.2 L 118.5 6.2 L 118.5 6.2 Q 118.5 3.5 120.5 2 L 120.5 2 L 120.5 2 Q 122.5 0.5 125.6 0.5 L 125.6 0.5 L 125.6 0.5 Q 128.2 0.5 130.3 1.7 L 130.3 1.7 L 130.3 1.7 Q 131.5 2.4 132.1 3.3 L 132.1 3.3 L 132.1 3.3 Q 130.6 4.6 130.6 6.7 L 130.6 6.7 L 130.6 6.7 Q 130.6 9.4 133.2 9.4 L 133.2 9.4 L 133.2 9.4 Q 137.5 9.4 139.9 -0.7 L 139.9 -0.7 L 139.9 -0.7 Q 140.6 -3.4 141.2 -6.2 L 141.2 -6.2 L 141.2 -6.2 Q 138.3 -2.7 131.8 -2.7 L 131.8 -2.7 L 131.8 -2.7 Q 127.2 -2.7 124.6 -4.9 L 124.6 -4.9 L 124.6 -4.9 Q 122 -7 122 -12.2 L 122 -12.2 L 122 -12.2 Q 122 -15.3 123.1 -19 L 123.1 -19 L 123.1 -19 Q 124.2 -22.6 126.3 -25.7 Z M 134.6 -12 L 134.6 -12 L 134.6 -12 Q 134.6 -7.6 136.9 -7.6 L 136.9 -7.6 L 136.9 -7.6 Q 138.4 -7.6 139.9 -9.3 L 139.9 -9.3 L 139.9 -9.3 Q 141 -10.6 141.5 -12.6 L 141.5 -12.6 L 144.8 -29 L 144.8 -29 Q 144.4 -29.1 144.1 -29.2 L 144.1 -29.2 L 144.1 -29.2 Q 143.5 -29.5 142.6 -29.5 L 142.6 -29.5 L 142.6 -29.5 Q 138.7 -29.5 136.4 -23.1 L 136.4 -23.1 L 136.4 -23.1 Q 134.6 -18.1 134.6 -12 Z M 186 -9.7 L 186 -9.7 L 186 -9.7 Q 187.6 -8.6 187.6 -6.2 L 187.6 -6.2 L 187.6 -6.2 Q 187.6 -3.8 186.4 -2.3 L 186.4 -2.3 L 186.4 -2.3 Q 185.2 -0.8 183.2 0.3 L 183.2 0.3 L 183.2 0.3 Q 179.1 2.4 174.7 2.4 L 174.7 2.4 L 174.7 2.4 Q 170.3 2.4 167.7 1.4 L 167.7 1.4 L 167.7 1.4 Q 165.1 0.5 163.4 -1.3 L 163.4 -1.3 L 163.4 -1.3 Q 160 -4.7 160 -10.9 L 160 -10.9 L 160 -10.9 Q 160 -20.6 165.2 -26.5 L 165.2 -26.5 L 165.2 -26.5 Q 170.9 -32.8 180.7 -32.8 L 180.7 -32.8 L 180.7 -32.8 Q 186.7 -32.8 189.7 -30.3 L 189.7 -30.3 L 189.7 -30.3 Q 192 -28.3 192 -25.2 L 192 -25.2 L 192 -25.2 Q 192 -13.9 172.5 -13.9 L 172.5 -13.9 L 172.5 -13.9 Q 172.3 -12.3 172.3 -10.9 L 172.3 -10.9 L 172.3 -10.9 Q 172.3 -7.9 173.6 -6.8 L 173.6 -6.8 L 173.6 -6.8 Q 174.9 -5.7 177.3 -5.7 L 177.3 -5.7 L 177.3 -5.7 Q 179.8 -5.7 182.4 -6.8 L 182.4 -6.8 L 182.4 -6.8 Q 185 -7.9 186 -9.7 Z M 173 -16.7 L 173 -16.7 L 173 -16.7 Q 177.5 -16.7 180.2 -19.5 L 180.2 -19.5 L 180.2 -19.5 Q 182.8 -22.2 182.8 -26.5 L 182.8 -26.5 L 182.8 -26.5 Q 182.8 -28 182.2 -28.8 L 182.2 -28.8 L 182.2 -28.8 Q 181.7 -29.6 180.6 -29.6 L 180.6 -29.6 L 180.6 -29.6 Q 179.5 -29.6 178.6 -29.1 L 178.6 -29.1 L 178.6 -29.1 Q 177.7 -28.7 176.7 -27.3 L 176.7 -27.3 L 176.7 -27.3 Q 174.3 -24.1 173 -16.7 Z M 213.3 -21.4 L 213.3 -21.4 L 213.3 -21.4 Q 214.2 -23.7 214.2 -25.8 L 214.2 -25.8 L 214.2 -25.8 Q 214.2 -29.6 211.1 -29.6 L 211.1 -29.6 L 211.1 -29.6 Q 209.5 -29.6 208.2 -28.1 L 208.2 -28.1 L 208.2 -28.1 Q 206.9 -26.7 206.9 -24.9 L 206.9 -24.9 L 206.9 -24.9 Q 206.9 -23.6 207.9 -22.6 L 207.9 -22.6 L 207.9 -22.6 Q 209.4 -21.2 213.2 -18.9 L 213.2 -18.9 L 213.2 -18.9 Q 217 -16.6 218.4 -14.7 L 218.4 -14.7 L 218.4 -14.7 Q 219.8 -12.8 219.8 -10.2 L 219.8 -10.2 L 219.8 -10.2 Q 219.8 -7.6 218.6 -5.2 L 218.6 -5.2 L 218.6 -5.2 Q 217.3 -2.9 215.1 -1.2 L 215.1 -1.2 L 215.1 -1.2 Q 210.3 2.4 202.6 2.4 L 202.6 2.4 L 202.6 2.4 Q 198.5 2.4 195.2 0.2 L 195.2 0.2 L 195.2 0.2 Q 192.1 -1.9 192.1 -4.4 L 192.1 -4.4 L 192.1 -4.4 Q 192.1 -6.9 193.9 -8.4 L 193.9 -8.4 L 193.9 -8.4 Q 195.7 -9.8 198.4 -9.8 L 198.4 -9.8 L 198.4 -9.8 Q 201.1 -9.8 202.7 -8.8 L 202.7 -8.8 L 202.7 -8.8 Q 201.9 -6.7 201.9 -5.3 L 201.9 -5.3 L 201.9 -5.3 Q 201.9 -1.1 205.5 -1.1 L 205.5 -1.1 L 205.5 -1.1 Q 207 -1.1 208.1 -2 L 208.1 -2 L 208.1 -2 Q 209.1 -3 209.1 -4.7 L 209.1 -4.7 L 209.1 -4.7 Q 209.1 -7.9 203.6 -11.4 L 203.6 -11.4 L 203.6 -11.4 Q 199.1 -14.3 198.1 -15.5 L 198.1 -15.5 L 198.1 -15.5 Q 196.3 -17.5 196.3 -20.1 L 196.3 -20.1 L 196.3 -20.1 Q 196.3 -22.6 197.6 -25.1 L 197.6 -25.1 L 197.6 -25.1 Q 198.8 -27.5 201 -29.2 L 201 -29.2 L 201 -29.2 Q 205.7 -32.8 213.8 -32.8 L 213.8 -32.8 L 213.8 -32.8 Q 218 -32.8 220.4 -31.2 L 220.4 -31.2 L 220.4 -31.2 Q 222.9 -29.5 222.9 -26.7 L 222.9 -26.7 L 222.9 -26.7 Q 222.9 -23.9 221.2 -22.3 L 221.2 -22.3 L 221.2 -22.3 Q 219.5 -20.7 216.4 -20.7 L 216.4 -20.7 L 216.4 -20.7 Q 214.3 -20.7 213.3 -21.4 Z M 264.4 -19.5 L 277.3 -20.7 L 277.3 -20.7 Q 272.7 -10.6 272.7 1.2 L 272.7 1.2 L 272.7 1.2 Q 271 2.4 268.4 2.4 L 268.4 2.4 L 268.4 2.4 Q 265.9 2.4 264.3 1.2 L 264.3 1.2 L 264.3 1.2 Q 262.7 0 262.4 -1.2 L 262.4 -1.2 L 262.4 -1.2 Q 260.8 0.5 258.2 1.4 L 258.2 1.4 L 258.2 1.4 Q 255.6 2.4 252.8 2.4 L 252.8 2.4 L 252.8 2.4 Q 250.1 2.4 247.7 1.5 L 247.7 1.5 L 247.7 1.5 Q 245.3 0.6 243.4 -1.4 L 243.4 -1.4 L 243.4 -1.4 Q 239.3 -5.7 239.3 -14 L 239.3 -14 L 239.3 -14 Q 239.3 -26.8 246.2 -34.5 L 246.2 -34.5 L 246.2 -34.5 Q 253.2 -42.4 265.7 -42.4 L 265.7 -42.4 L 265.7 -42.4 Q 274.4 -42.4 277.4 -37.9 L 277.4 -37.9 L 277.4 -37.9 Q 278.4 -36.5 278.4 -34.8 L 278.4 -34.8 L 278.4 -34.8 Q 278.4 -33.1 277.7 -31.7 L 277.7 -31.7 L 277.7 -31.7 Q 276.9 -30.3 275.8 -29.1 L 275.8 -29.1 L 275.8 -29.1 Q 273 -26.5 269.6 -26.5 L 269.6 -26.5 L 269.6 -26.5 Q 268.3 -26.5 267 -27 L 267 -27 L 267 -27 Q 267.3 -28.9 267.3 -31.2 L 267.3 -31.2 L 267.3 -31.2 Q 267.3 -33.4 267.1 -34.4 L 267.1 -34.4 L 267.1 -34.4 Q 266.9 -35.4 266.5 -36.3 L 266.5 -36.3 L 266.5 -36.3 Q 265.7 -38 263.9 -38 L 263.9 -38 L 263.9 -38 Q 262.1 -38 260 -36 L 260 -36 L 260 -36 Q 258 -34.1 256.4 -30.9 L 256.4 -30.9 L 256.4 -30.9 Q 252.9 -23.7 252.9 -15.1 L 252.9 -15.1 L 252.9 -15.1 Q 252.9 -11.1 254.5 -8.3 L 254.5 -8.3 L 254.5 -8.3 Q 256.1 -5.2 259.1 -5.2 L 259.1 -5.2 L 259.1 -5.2 Q 260.1 -5.2 261 -5.7 L 261 -5.7 L 261 -5.7 Q 261.9 -6.3 262.3 -6.6 L 262.3 -6.6 L 264.4 -19.5 Z M 283.2 -0.8 L 283.2 -0.8 L 283.2 -0.8 Q 281.7 -2.5 281 -5.1 L 281 -5.1 L 281 -5.1 Q 280.4 -7.7 280.4 -12 L 280.4 -12 L 280.4 -12 Q 280.4 -16.3 281.8 -20.2 L 281.8 -20.2 L 281.8 -20.2 Q 283.3 -24.1 286 -26.9 L 286 -26.9 L 286 -26.9 Q 291.5 -32.8 300.6 -32.8 L 300.6 -32.8 L 300.6 -32.8 Q 303.9 -32.8 306.2 -31.7 L 306.2 -31.7 L 317.2 -32.8 L 312.4 -7.9 L 312.4 -7.9 Q 312.2 -7.1 312.2 -5.7 L 312.2 -5.7 L 312.2 -5.7 Q 312.2 -4.3 313.1 -3.4 L 313.1 -3.4 L 313.1 -3.4 Q 314 -2.5 315.3 -2.4 L 315.3 -2.4 L 315.3 -2.4 Q 314.6 -0.2 312.3 1.1 L 312.3 1.1 L 312.3 1.1 Q 309.9 2.4 307.3 2.4 L 307.3 2.4 L 307.3 2.4 Q 304.7 2.4 302.9 1.4 L 302.9 1.4 L 302.9 1.4 Q 301.2 0.4 300.7 -1.3 L 300.7 -1.3 L 300.7 -1.3 Q 299.6 0.3 297.5 1.4 L 297.5 1.4 L 297.5 1.4 Q 295.3 2.4 292.4 2.4 L 292.4 2.4 L 292.4 2.4 Q 289.5 2.4 287.1 1.6 L 287.1 1.6 L 287.1 1.6 Q 284.7 0.8 283.2 -0.8 Z M 296.7 -26.8 L 296.7 -26.8 L 296.7 -26.8 Q 296 -25.7 295.3 -23.7 L 295.3 -23.7 L 295.3 -23.7 Q 294.7 -21.8 293.7 -16.5 L 293.7 -16.5 L 293.7 -16.5 Q 292.6 -11.3 292.6 -7.6 L 292.6 -7.6 L 292.6 -7.6 Q 292.6 -3.9 293.2 -2.8 L 293.2 -2.8 L 293.2 -2.8 Q 293.8 -1.7 294.8 -1.7 L 294.8 -1.7 L 294.8 -1.7 Q 296.8 -1.7 298.3 -3.7 L 298.3 -3.7 L 298.3 -3.7 Q 299.8 -5.6 300.4 -9.1 L 300.4 -9.1 L 303.8 -27.8 L 303.8 -27.8 Q 302.5 -29 300.9 -29 L 300.9 -29 L 300.9 -29 Q 299.3 -29 298.4 -28.5 L 298.4 -28.5 L 298.4 -28.5 Q 297.5 -28 296.7 -26.8 Z M 335.9 -2.4 L 335.9 -2.4 L 335.9 -2.4 Q 333.9 2.4 327.6 2.4 L 327.6 2.4 L 327.6 2.4 Q 324.4 2.4 322.4 0.1 L 322.4 0.1 L 322.4 0.1 Q 320.7 -1.7 320.7 -3.8 L 320.7 -3.8 L 320.7 -3.8 Q 320.7 -8.6 322.9 -19.1 L 322.9 -19.1 L 327.6 -43.7 L 340.6 -45 L 334.4 -12.6 L 334.4 -12.6 Q 333.3 -7.9 333.3 -6.2 L 333.3 -6.2 L 333.3 -6.2 Q 333.3 -2.5 335.9 -2.4 Z M 356.7 -2.4 L 356.7 -2.4 L 356.7 -2.4 Q 354.7 2.4 348.3 2.4 L 348.3 2.4 L 348.3 2.4 Q 345.1 2.4 343.1 0.1 L 343.1 0.1 L 343.1 0.1 Q 341.4 -1.7 341.4 -3.8 L 341.4 -3.8 L 341.4 -3.8 Q 341.4 -8.6 343.7 -19.1 L 343.7 -19.1 L 348.3 -43.7 L 361.3 -45 L 355.1 -12.6 L 355.1 -12.6 Q 354 -7.9 354 -6.2 L 354 -6.2 L 354 -6.2 Q 354 -2.5 356.7 -2.4 Z M 364.9 -0.8 L 364.9 -0.8 L 364.9 -0.8 Q 363.4 -2.5 362.7 -5.1 L 362.7 -5.1 L 362.7 -5.1 Q 362 -7.7 362 -12 L 362 -12 L 362 -12 Q 362 -16.3 363.5 -20.2 L 363.5 -20.2 L 363.5 -20.2 Q 365 -24.1 367.7 -26.9 L 367.7 -26.9 L 367.7 -26.9 Q 373.2 -32.8 382.3 -32.8 L 382.3 -32.8 L 382.3 -32.8 Q 385.5 -32.8 387.9 -31.7 L 387.9 -31.7 L 398.8 -32.8 L 394.1 -7.9 L 394.1 -7.9 Q 393.9 -7.1 393.9 -5.7 L 393.9 -5.7 L 393.9 -5.7 Q 393.9 -4.3 394.8 -3.4 L 394.8 -3.4 L 394.8 -3.4 Q 395.6 -2.5 396.9 -2.4 L 396.9 -2.4 L 396.9 -2.4 Q 396.3 -0.2 393.9 1.1 L 393.9 1.1 L 393.9 1.1 Q 391.6 2.4 389 2.4 L 389 2.4 L 389 2.4 Q 386.4 2.4 384.6 1.4 L 384.6 1.4 L 384.6 1.4 Q 382.8 0.4 382.3 -1.3 L 382.3 -1.3 L 382.3 -1.3 Q 381.3 0.3 379.1 1.4 L 379.1 1.4 L 379.1 1.4 Q 377 2.4 374 2.4 L 374 2.4 L 374 2.4 Q 371.1 2.4 368.8 1.6 L 368.8 1.6 L 368.8 1.6 Q 366.4 0.8 364.9 -0.8 Z M 378.4 -26.8 L 378.4 -26.8 L 378.4 -26.8 Q 377.7 -25.7 377 -23.7 L 377 -23.7 L 377 -23.7 Q 376.4 -21.8 375.3 -16.5 L 375.3 -16.5 L 375.3 -16.5 Q 374.3 -11.3 374.3 -7.6 L 374.3 -7.6 L 374.3 -7.6 Q 374.3 -3.9 374.8 -2.8 L 374.8 -2.8 L 374.8 -2.8 Q 375.4 -1.7 376.4 -1.7 L 376.4 -1.7 L 376.4 -1.7 Q 378.5 -1.7 380 -3.7 L 380 -3.7 L 380 -3.7 Q 381.5 -5.6 382.1 -9.1 L 382.1 -9.1 L 385.5 -27.8 L 385.5 -27.8 Q 384.1 -29 382.5 -29 L 382.5 -29 L 382.5 -29 Q 381 -29 380 -28.5 L 380 -28.5 L 380 -28.5 Q 379.1 -28 378.4 -26.8 Z M 422.3 -16.9 L 422.3 -16.9 L 422.3 -16.9 Q 424.6 -21 424.6 -25.1 L 424.6 -25.1 L 424.6 -25.1 Q 424.6 -27.9 422.6 -27.9 L 422.6 -27.9 L 422.6 -27.9 Q 421.1 -27.9 419.5 -25.3 L 419.5 -25.3 L 419.5 -25.3 Q 417.8 -22.6 417.3 -19.3 L 417.3 -19.3 L 414 1.1 L 400.8 2.4 L 407.3 -31.5 L 417.8 -32.8 L 416.7 -26.4 L 416.7 -26.4 Q 419.8 -32.8 426.9 -32.8 L 426.9 -32.8 L 426.9 -32.8 Q 430.6 -32.8 432.6 -30.9 L 432.6 -30.9 L 432.6 -30.9 Q 434.6 -29 434.6 -25 L 434.6 -25 L 434.6 -25 Q 434.6 -21.1 432 -18.6 L 432 -18.6 L 432 -18.6 Q 429.4 -16.1 425 -16.1 L 425 -16.1 L 425 -16.1 Q 423.1 -16.1 422.3 -16.9 Z M 456 -6.1 L 456 -6.1 L 456 -6.1 Q 452.7 -2.7 446.6 -2.7 L 446.6 -2.7 L 446.6 -2.7 Q 439 -2.7 437.4 -8.2 L 437.4 -8.2 L 437.4 -8.2 Q 436.8 -9.9 436.8 -11.8 L 436.8 -11.8 L 436.8 -11.8 Q 436.8 -13.6 437.2 -15.5 L 437.2 -15.5 L 440.2 -31.5 L 453.2 -32.8 L 449.7 -14.2 L 449.7 -14.2 Q 449.6 -13.4 449.4 -12.5 L 449.4 -12.5 L 449.4 -12.5 Q 449.2 -11.6 449.2 -10.6 L 449.2 -10.6 L 449.2 -10.6 Q 449.2 -9.7 449.5 -9.1 L 449.5 -9.1 L 449.5 -9.1 Q 449.8 -8.5 450.3 -8.1 L 450.3 -8.1 L 450.3 -8.1 Q 451.1 -7.6 452.4 -7.6 L 452.4 -7.6 L 452.4 -7.6 Q 453.8 -7.6 455 -9.3 L 455 -9.3 L 455 -9.3 Q 456.2 -10.9 456.8 -13.8 L 456.8 -13.8 L 460.3 -31.5 L 472.9 -32.8 L 468.1 -7.7 L 468.1 -7.7 Q 465.7 4.6 460.8 9.5 L 460.8 9.5 L 460.8 9.5 Q 458.4 12 455.1 13 L 455.1 13 L 455.1 13 Q 451.9 14 447.7 14 L 447.7 14 L 447.7 14 Q 441 14 437.2 11.9 L 437.2 11.9 L 437.2 11.9 Q 433.3 9.7 433.3 6.2 L 433.3 6.2 L 433.3 6.2 Q 433.3 3.6 435.3 2.1 L 435.3 2.1 L 435.3 2.1 Q 437.3 0.6 440.4 0.6 L 440.4 0.6 L 440.4 0.6 Q 443.1 0.6 445.1 1.7 L 445.1 1.7 L 445.1 1.7 Q 446.3 2.4 446.9 3.3 L 446.9 3.3 L 446.9 3.3 Q 445.4 4.6 445.4 6.7 L 445.4 6.7 L 445.4 6.7 Q 445.4 9.5 448 9.5 L 448 9.5 L 448 9.5 Q 452.2 9.5 454.6 -0.2 L 454.6 -0.2 L 454.6 -0.2 Q 455.3 -3.1 456 -6.1 Z" fill="url(#editing-gradient-gradient)"></path></g></g><style>text {
  font-size: 64px;
  font-family: Arial Black;
  dominant-baseline: central;
  text-anchor: middle;
}</style></svg>